<?xml version="1.0" encoding="UTF-8"?>
<svg width="1257px" height="1257px" viewBox="0 0 1257 1257" version="1.1" xmlns="http://www.w3.org/2000/svg" xmlns:xlink="http://www.w3.org/1999/xlink">
    <!-- Generator: Sketch 51.3 (57544) - http://www.bohemiancoding.com/sketch -->
    <title>thumb</title>
    <desc>Created with Sketch.</desc>
    <defs></defs>
    <g id="Page-1" stroke="none" stroke-width="1" fill="none" fill-rule="evenodd">
        <g id="Report" fill="#000000" fill-rule="nonzero">
            <path d="M964,459.545455 C964,498.181818 933.149425,529.090909 894.586207,529.090909 C889.187356,529.090909 883.788506,528.318182 878.389655,526.772727 L774.268966,712.227273 C786.609195,724.590909 794.321839,741.590909 794.321839,760.909091 C794.321839,799.545455 763.471264,830.454545 724.908046,830.454545 C686.344828,830.454545 655.494253,799.545455 655.494253,760.909091 C655.494253,746.227273 660.121839,731.545455 668.605747,720.727273 L599.963218,631.090909 C590.708046,634.954545 580.681609,637.272727 570.655172,637.272727 C559.857471,637.272727 549.831034,634.954545 540.575862,630.318182 L417.173563,787.954545 C426.428736,799.545455 431.827586,814.227273 431.827586,830.454545 C431.827586,869.090909 400.977011,900 362.413793,900 C323.850575,900 293,869.090909 293,830.454545 C293,791.818182 323.850575,760.909091 362.413793,760.909091 C373.211494,760.909091 384.009195,763.227273 393.264368,768.636364 L516.666667,611.772727 C506.64023,600.181818 501.241379,584.727273 501.241379,568.5 C501.241379,529.863636 532.091954,498.954545 570.655172,498.954545 C609.218391,498.954545 640.068966,529.863636 640.068966,568.5 C640.068966,585.5 633.898851,600.954545 623.872414,612.545455 L691.743678,700.636364 C701.770115,694.454545 712.567816,691.363636 724.908046,691.363636 C733.391954,691.363636 741.104598,692.909091 748.045977,695.227273 L850.624138,513.636364 C835.198851,500.5 825.172414,481.181818 825.172414,459.545455 C825.172414,420.909091 856.022989,390 894.586207,390 C933.149425,390 964,420.909091 964,459.545455 Z" id="Shape"></path>
        </g>
    </g>
</svg>